<svg width="18" height="10" viewBox="0 0 18 10" fill="none" xmlns="http://www.w3.org/2000/svg">
<path d="M0.795128 1.53491C0.76584 1.44524 0.75 1.34949 0.75 1.25004C0.75 0.743784 1.16041 0.333374 1.66667 0.333374C2.08806 0.333374 2.44304 0.617715 2.55021 1.005C4.46221 7.40876 13.5335 7.41022 15.4486 1.00928C15.5543 0.619814 15.9104 0.333374 16.3333 0.333374C16.8396 0.333374 17.25 0.743784 17.25 1.25004C17.25 1.34795 17.2347 1.44227 17.2062 1.53073C16.8389 2.76089 16.2638 3.80534 15.5438 4.66407L16.7131 5.83337C17.0711 6.19133 17.0711 6.77177 16.7131 7.12972C16.3552 7.48768 15.7747 7.48768 15.4168 7.12972L14.2146 5.92761C13.56 6.42242 12.8419 6.81008 12.0879 7.09067L12.4159 8.31488C12.547 8.80392 12.2567 9.30653 11.7677 9.43752C11.2787 9.56861 10.776 9.27839 10.6451 8.78935L10.3118 7.54589C9.4433 7.67441 8.5567 7.67441 7.68816 7.54589L7.35495 8.78935C7.22396 9.27839 6.72131 9.56861 6.23231 9.43752C5.74329 9.30653 5.4531 8.80392 5.58412 8.31488L5.91215 7.09067C5.15817 6.81008 4.44013 6.42242 3.78551 5.9277L2.58349 7.12972C2.2255 7.48768 1.64511 7.48768 1.28713 7.12972C0.929144 6.77177 0.929144 6.19133 1.28713 5.83337L2.45635 4.66417C1.73715 3.80635 1.16258 2.76327 0.795128 1.53491Z" fill="#94A3B8"/>
</svg>
