<svg width="20" height="14" viewBox="0 0 20 14" fill="none" xmlns="http://www.w3.org/2000/svg">
<path fill-rule="evenodd" clip-rule="evenodd" d="M2.66715 7.00114L2.66697 7.00004L2.66715 6.99894C2.6694 6.98464 2.68218 6.90379 2.75365 6.74493C2.83229 6.57003 2.95985 6.34966 3.14235 6.09602C3.50696 5.58938 4.05231 5.00361 4.74157 4.44817C6.12905 3.33004 7.9946 2.41671 10 2.41671C12.0054 2.41671 13.871 3.33004 15.2585 4.44817C15.9477 5.00361 16.493 5.58938 16.8577 6.09602C17.0402 6.34966 17.1677 6.57003 17.2464 6.74493C17.3179 6.90379 17.3306 6.98464 17.3329 6.99894L17.3331 7.00004L17.3329 7.00114C17.3306 7.01544 17.3179 7.09629 17.2464 7.25515C17.1677 7.43005 17.0402 7.65042 16.8577 7.90406C16.493 8.4107 15.9477 8.99645 15.2585 9.55195C13.871 10.67 12.0054 11.5834 10 11.5834C7.9946 11.5834 6.12905 10.67 4.74157 9.55195C4.05231 8.99645 3.50696 8.4107 3.14235 7.90406C2.95985 7.65042 2.83229 7.43005 2.75365 7.25515C2.68218 7.09629 2.6694 7.01544 2.66715 7.00114ZM10 0.583374C7.44906 0.583374 5.18962 1.73254 3.59119 3.02066C2.78748 3.66834 2.12466 4.37159 1.65432 5.02513C1.41935 5.3516 1.22274 5.67912 1.0816 5.99299C0.946533 6.29329 0.833344 6.64428 0.833344 7.00004C0.833344 7.3558 0.946533 7.70679 1.0816 8.00709C1.22274 8.32096 1.41935 8.64848 1.65432 8.97491C2.12466 9.62849 2.78748 10.3318 3.59119 10.9794C5.18962 12.2676 7.44906 13.4167 10 13.4167C12.5509 13.4167 14.8104 12.2676 16.4088 10.9794C17.2125 10.3318 17.8754 9.62849 18.3457 8.97491C18.5807 8.64848 18.7773 8.32096 18.9184 8.00709C19.0535 7.70679 19.1667 7.3558 19.1667 7.00004C19.1667 6.64428 19.0535 6.29329 18.9184 5.99299C18.7773 5.67912 18.5807 5.3516 18.3457 5.02513C17.8754 4.37159 17.2125 3.66834 16.4088 3.02066C14.8104 1.73254 12.5509 0.583374 10 0.583374ZM9.08334 7.00004C9.08334 6.49376 9.49373 6.08337 10 6.08337C10.5063 6.08337 10.9167 6.49376 10.9167 7.00004C10.9167 7.50631 10.5063 7.91671 10 7.91671C9.49373 7.91671 9.08334 7.50631 9.08334 7.00004ZM10 4.25004C8.48118 4.25004 7.25001 5.48122 7.25001 7.00004C7.25001 8.51887 8.48118 9.75004 10 9.75004C11.5188 9.75004 12.75 8.51887 12.75 7.00004C12.75 5.48122 11.5188 4.25004 10 4.25004Z" fill="#94A3B8"/>
</svg>
